<?xml version="1.0" encoding="UTF-8" standalone="no"?><!DOCTYPE svg PUBLIC "-//W3C//DTD SVG 1.1//EN" "http://www.w3.org/Graphics/SVG/1.1/DTD/svg11.dtd"><svg width="100%" height="100%" viewBox="0 0 1667 1273" version="1.1" xmlns="http://www.w3.org/2000/svg" xmlns:xlink="http://www.w3.org/1999/xlink" xml:space="preserve" style="fill-rule:evenodd;clip-rule:evenodd;stroke-linejoin:round;stroke-miterlimit:1.41421;"><g><path d="M1115.56,65c-18.889,20.556 -178.334,221.667 -237.778,300.556l-47.222,62.222l-416.112,0c-228.888,0 -415,1.111 -413.333,2.778c1.111,1.666 190.556,2.777 420,2.777c325.556,0 417.778,1.667 418.333,7.223c0.556,3.333 0.556,10.555 0,15c0,5.555 0.556,6.111 2.778,1.111c1.667,-3.889 23.334,27.222 47.778,69.444c25,42.222 53.333,90 63.333,106.111l18.889,28.889l-0.555,129.445c0,70.555 -1.111,126.111 -2.223,123.333c-1.111,-3.333 -28.888,-105 -61.666,-227.222c-33.334,-121.667 -61.111,-218.889 -61.667,-216.111c-2.778,8.333 190,708.888 208.889,758.888l6.111,15l450,0l0,-452.777l-123.889,-63.334c-67.778,-35 -201.666,-106.666 -297.222,-160c-187.778,-103.889 -217.778,-120 -217.778,-116.111c0,2.222 282.222,159.445 347.222,193.889c15.556,8.333 10.556,8.889 -89.444,9.445l-106.667,0l-83.889,-102.223c-46.111,-56.666 -86.111,-103.889 -89.444,-106.111c-2.778,-1.666 -5.556,-5.555 -5.556,-8.889c0,-2.777 159.445,-5.555 412.778,-6.111l412.222,-1.666l-411.111,-2.778c-226.111,-1.667 -407.777,-3.334 -403.889,-4.445c3.889,-0.555 5.556,-3.889 3.889,-6.666c-2.222,-3.334 -6.111,-3.889 -9.444,-2.223c-3.889,2.778 -4.445,1.112 -2.222,-2.777c3.333,-5 6.666,-5 13.889,1.666c10.555,9.445 20,12.223 15,4.445c-1.667,-2.778 17.777,-13.889 43.333,-25.556c43.333,-19.444 48.333,-20.555 98.333,-19.444c49.445,1.111 61.111,-1.111 201.111,-39.445l148.334,-40.555l0,-242.778l-118.334,0l-118.333,0l-14.444,15Zm245.555,104.444l0,113.889l-113.889,0l-113.889,0l0,-227.777l227.778,0l0,113.888Zm-233.333,4.445l0,112.778l-75.556,35.555c-41.666,19.445 -73.333,36.667 -70.555,37.222c2.777,1.112 36.666,-13.333 74.444,-31.666l68.889,-33.334l102.778,0.556l102.778,0l-130.556,35.556c-106.667,29.444 -138.333,35.555 -173.333,36.111c-61.667,0 -60,1.666 -60,-56.111l0,-49.445l79.444,-100c43.333,-54.444 79.445,-99.444 80.556,-99.444c0.555,-0.556 1.111,50 1.111,112.222Zm-166.667,127.222l0,35l-35,23.889c-37.778,25.556 -67.222,48.889 -53.889,42.222c4.445,-2.222 25,-16.111 45.556,-31.111c20.555,-14.444 38.889,-26.667 40.555,-26.667c1.667,0 2.778,5 2.778,11.667c0,8.889 -10,16.111 -45.555,32.222c-56.667,26.111 -66.667,24.445 -42.223,-7.777c10,-13.334 33.334,-43.889 51.667,-68.334c18.333,-24.444 33.889,-45 35,-45c0.556,-0.555 1.111,15 1.111,33.889Zm-20.555,261.111l75.555,93.334l-21.111,0l-20.556,0l-49.444,-82.223c-27.222,-45 -52.778,-87.777 -57.778,-95.555c-12.778,-21.111 -7.778,-15 73.334,84.444Zm423.888,161.111l120.556,62.778l-210,1.667c-115.556,0.555 -212.222,-0.556 -214.444,-2.778c-2.223,-2.778 -21.667,-31.111 -43.334,-64.444l-39.444,-59.445l266.111,0l120.555,62.222Zm-346.111,12.223l37.223,57.222l-0.556,207.778l0,207.777l-38.889,-136.111l-38.333,-136.111l0,-129.444c0,-70.556 1.111,-128.889 1.666,-128.889c1.112,0 18.889,26.111 38.889,57.778Zm481.667,278.333l0,219.444l-219.444,0l-219.445,0l0,-438.889l438.889,0l0,219.445Z" style="fill-rule:nonzero;"/><path d="M1252.78,128.333c-51.667,36.667 -98.334,70.556 -102.778,75.556c-8.889,9.444 1.111,2.778 123.889,-83.889c65.555,-46.667 81.667,-59.444 75,-58.889c-1.111,0 -43.889,30.556 -96.111,67.222Z" style="fill-rule:nonzero;"/><path d="M1097.22,238.889c-20,14.444 -27.222,16.111 -69.444,17.778l-47.222,1.111l45.555,1.666l45.556,2.223l2.222,17.777c2.222,17.223 2.222,17.223 2.778,-3.333c0.555,-11.111 2.777,-20.555 5.555,-20.555c2.222,0 12.778,-7.778 23.334,-16.667c25,-21.111 20.555,-21.111 -8.334,0Z" style="fill-rule:nonzero;"/><path d="M1246.67,727.778c0,28.889 0.555,41.111 1.666,26.111c1.111,-14.445 1.111,-37.778 0,-52.778c-1.111,-14.444 -1.666,-2.222 -1.666,26.667Z" style="fill-rule:nonzero;"/><path d="M1007.22,937.222c8.334,1.111 20.556,1.111 27.778,0c6.667,-1.111 0,-2.222 -15.556,-2.222c-15,0 -21.111,1.111 -12.222,2.222Z" style="fill-rule:nonzero;"/><path d="M1245.56,867.778l-1.112,65l-87.222,2.222l-87.778,1.667l89.445,1.111l90,1.111l111.667,132.778c61.111,72.777 116.111,136.111 121.666,140c12.222,10 17.222,16.111 -118.889,-145l-110.555,-130.556l-3.334,-66.667l-2.777,-66.666l-1.111,65Z" style="fill-rule:nonzero;"/><path d="M953.889,395.556c-36.111,9.444 -64.445,17.777 -63.333,19.444c2.777,2.222 138.333,-30.556 142.222,-35c5,-4.444 -15,-0.556 -78.889,15.556Z" style="fill-rule:nonzero;"/><path d="M628.333,471.111c-77.222,17.222 -138.333,32.222 -135,33.333c5,1.667 278.334,-56.666 292.778,-62.222c21.111,-8.333 -36.667,2.222 -157.778,28.889Z" style="fill-rule:nonzero;"/><path d="M811.111,444.444c0,3.889 -1.667,6.112 -3.333,3.889c-2.222,-1.666 -26.111,11.667 -53.334,30l-49.444,33.334l-121.667,-1.111c-113.333,-1.112 -126.666,0 -202.222,15l-81.111,15.555l0,182.222l0,182.223l360.556,0l10.555,-29.445c6.111,-15.555 17.778,-46.667 26.111,-67.778c14.445,-37.777 15,-42.222 14.445,-152.777l-0.556,-113.889l37.778,-32.223c48.333,-40.555 70.555,-63.888 66.111,-68.888c-2.222,-1.667 -3.889,0 -3.889,3.888Zm-30.555,30.556c-58.889,52.778 -69.445,60.556 -69.445,48.333c0,-7.222 15,-20.555 46.111,-41.666c25,-17.223 46.667,-31.111 48.334,-31.111c1.666,0 -9.445,11.111 -25,24.444Zm-83.889,45c7.777,2.778 8.889,19.444 8.889,124.444l0,120.556l-22.223,57.778l-21.666,57.778l-0.556,-167.778l0,-167.778l17.222,-8.889c9.445,-5 15.556,-10.555 14.445,-12.222c-1.667,-1.667 -8.889,1.111 -16.111,6.111c-10.556,7.778 -33.334,8.889 -165.556,8.333l-152.778,-0.555l44.445,-10c34.444,-7.778 71.666,-10 165,-10.556c66.111,-0.555 123.889,1.111 128.889,2.778Zm-41.111,202.222l0,177.778l-175,0l-175,0l0,-355.556l350,0l0,177.778Z" style="fill-rule:nonzero;"/><path d="M451.111,658.333l-1.111,111.111l-44.444,38.889c-25,21.667 -54.445,47.223 -65.556,56.667c-11.111,10 -18.889,18.333 -16.667,18.333c2.223,0 32.223,-25 66.667,-55.555l62.778,-55.556l194.444,-2.222l-95.555,-1.667l-96.111,-1.666l-1.667,-110l-1.111,-109.445l-1.667,111.111Z" style="fill-rule:nonzero;"/><path d="M811.111,481.667c-51.111,136.111 -94.444,258.889 -91.667,261.666c1.667,1.667 2.778,1.667 2.778,0.556c0,-1.667 23.889,-67.778 52.778,-146.667c28.889,-78.889 51.667,-144.444 50.556,-145.555c-1.112,-1.667 -7.778,12.222 -14.445,30Z" style="fill-rule:nonzero;"/></g></svg>