<svg viewBox="0 0 1667 1273" xmlns="http://www.w3.org/2000/svg" fill-rule="evenodd" clip-rule="evenodd" stroke-linejoin="round" stroke-miterlimit="1.414"><g fill-rule="nonzero"><path d="M1115.56 65c-18.89 20.556-178.334 221.667-237.778 300.556l-47.222 62.222H414.448c-228.888 0-415 1.11-413.333 2.778 1.11 1.666 190.556 2.777 420 2.777 325.556 0 417.778 1.667 418.333 7.223.556 3.333.556 10.555 0 15 0 5.555.556 6.11 2.778 1.11 1.667-3.888 23.334 27.223 47.778 69.445 25 42.223 53.333 90 63.333 106.112l18.89 28.89-.556 129.444c0 70.555-1.11 126.11-2.222 123.333-1.11-3.334-28.888-105-61.666-227.223-33.334-121.667-61.11-218.89-61.667-216.11-2.778 8.332 190 708.887 208.89 758.887l6.11 15h450V791.667l-123.89-63.334c-67.777-35-201.665-106.666-297.22-160-187.78-103.89-217.78-120-217.78-116.11 0 2.22 282.223 159.444 347.223 193.888 15.556 8.334 10.556 8.89-89.444 9.446h-106.667l-83.89-102.223c-46.11-56.666-86.11-103.89-89.443-106.11-2.778-1.667-5.556-5.556-5.556-8.89 0-2.777 159.445-5.555 412.778-6.11l412.222-1.667-411.11-2.778c-226.112-1.667-407.778-3.334-403.89-4.445 3.89-.555 5.556-3.89 3.89-6.666-2.223-3.334-6.112-3.89-9.445-2.223-3.89 2.778-4.445 1.112-2.222-2.777 3.334-5 6.667-5 13.89 1.666 10.555 9.445 20 12.223 15 4.445-1.667-2.778 17.777-13.89 43.333-25.556 43.333-19.444 48.333-20.555 98.333-19.444 49.445 1.11 61.11-1.11 201.11-39.445l148.335-40.555V50h-236.666l-14.444 15zm245.555 104.444v113.89H1133.337V55.555h227.778v113.888zm-233.333 4.445v112.777l-75.556 35.555c-41.666 19.445-73.333 36.667-70.555 37.222 2.778 1.112 36.667-13.333 74.445-31.666l68.89-33.334 102.777.556h102.778l-130.556 35.556C1093.337 360 1061.67 366.11 1026.67 366.666c-61.666 0-60 1.667-60-56.11V261.11l79.445-100c43.333-54.443 79.445-99.443 80.556-99.443.556-.556 1.112 50 1.112 112.222zM961.115 301.11v35l-35 23.89c-37.778 25.556-67.222 48.89-53.89 42.222 4.446-2.222 25-16.11 45.557-31.11 20.555-14.445 38.89-26.668 40.555-26.668 1.667 0 2.778 5 2.778 11.667 0 8.89-10 16.112-45.555 32.223-56.667 26.11-66.667 24.445-42.223-7.777 10-13.334 33.334-43.89 51.667-68.334 18.333-24.444 33.89-45 35-45 .556-.555 1.11 15 1.11 33.89zM940.56 562.223l75.555 93.334h-41.667l-49.444-82.223c-27.222-45-52.778-87.777-57.778-95.555-12.778-21.11-7.778-15 73.334 84.444zm423.888 161.11l120.556 62.78-210 1.666c-115.556.555-212.222-.556-214.444-2.778-2.223-2.778-21.667-31.11-43.334-64.444l-39.444-59.445h266.11l120.556 62.223zm-346.11 12.224l37.222 57.222-.556 207.778v207.777l-38.89-136.11-38.332-136.112V806.668c0-70.556 1.11-128.89 1.666-128.89 1.112 0 18.89 26.112 38.89 57.78zm481.666 278.333v219.443h-438.889v-438.89h438.89v219.446z"/><path d="M1252.78 128.333c-51.667 36.667-98.334 70.556-102.778 75.556-8.89 9.443 1.11 2.777 123.89-83.89 65.554-46.667 81.666-59.444 75-58.89-1.112 0-43.89 30.557-96.112 67.223zM1097.22 238.89c-20 14.443-27.222 16.11-69.444 17.777l-47.222 1.11 45.555 1.667 45.555 2.223 2.222 17.777c2.222 17.223 2.222 17.223 2.778-3.333.555-11.11 2.777-20.554 5.555-20.554 2.222 0 12.778-7.778 23.334-16.667 25-21.112 20.555-21.112-8.334 0zM1246.67 727.778c0 28.89.555 41.11 1.666 26.11 1.11-14.444 1.11-37.777 0-52.777-1.11-14.443-1.666-2.22-1.666 26.668zM1007.22 937.222c8.334 1.11 20.556 1.11 27.778 0 6.667-1.11 0-2.222-15.556-2.222-15 0-21.11 1.11-12.222 2.222zM1245.56 867.778l-1.112 65-87.222 2.222-87.778 1.667 89.445 1.11 90 1.112 111.667 132.777c61.11 72.777 116.11 136.11 121.666 140 12.222 10 17.222 16.11-118.89-145L1252.783 936.11l-3.334-66.666-2.777-66.666-1.11 65zM953.89 395.556C917.777 405 889.443 413.333 890.555 415c2.777 2.222 138.333-30.556 142.222-35 5-4.444-15-.556-78.89 15.556zM628.333 471.11c-77.222 17.223-138.333 32.223-135 33.334 5 1.667 278.334-56.666 292.778-62.222 21.112-8.333-36.666 2.222-157.777 28.89z"/><path d="M811.11 444.444c0 3.89-1.666 6.112-3.332 3.89-2.222-1.667-26.11 11.666-53.334 30L705 511.666l-121.667-1.11c-113.333-1.113-126.666 0-202.222 15L300 541.11v364.446h360.556l10.555-29.445c6.112-15.554 17.78-46.666 26.112-67.777 14.445-37.777 15-42.222 14.445-152.777l-.556-113.89 37.78-32.222c48.332-40.555 70.554-63.888 66.11-68.888-2.222-1.667-3.89 0-3.89 3.888zM780.557 475c-58.89 52.778-69.445 60.556-69.445 48.333 0-7.222 15-20.555 46.112-41.666 25-17.223 46.667-31.11 48.334-31.11 1.666 0-9.445 11.11-25 24.443zm-83.89 45c7.778 2.778 8.89 19.444 8.89 124.444V765l-22.223 57.778-21.666 57.778-.556-167.778V545l17.223-8.89c9.445-5 15.556-10.554 14.445-12.22-1.667-1.668-8.89 1.11-16.11 6.11-10.557 7.778-33.335 8.89-165.557 8.333l-152.777-.555 44.445-10c34.444-7.778 71.666-10 165-10.556 66.11-.555 123.89 1.11 128.89 2.778zm-41.11 202.222V900h-350V544.444h350v177.778z"/><path d="M451.11 658.333L450 769.443l-44.444 38.89C380.556 830 351.11 855.556 340 865c-11.11 10-18.89 18.333-16.667 18.333 2.223 0 32.223-25 66.667-55.555l62.778-55.556L647.222 770l-95.555-1.667-96.11-1.666-1.668-110-1.112-109.445-1.667 111.11zM811.11 481.667c-51.11 136.11-94.443 258.89-91.666 261.666 1.667 1.667 2.778 1.667 2.778.556 0-1.668 23.89-67.78 52.778-146.668 28.89-78.89 51.667-144.444 50.556-145.555-1.112-1.667-7.778 12.222-14.445 30z"/></g></svg>