<?xml version="1.0" encoding="UTF-8" standalone="no"?><!DOCTYPE svg PUBLIC "-//W3C//DTD SVG 1.1//EN" "http://www.w3.org/Graphics/SVG/1.1/DTD/svg11.dtd"><svg width="100%" height="100%" viewBox="0 0 1667 1198" version="1.1" xmlns="http://www.w3.org/2000/svg" xmlns:xlink="http://www.w3.org/1999/xlink" xml:space="preserve" style="fill-rule:evenodd;clip-rule:evenodd;stroke-linejoin:round;stroke-miterlimit:1.41421;"><clipPath id="_clip1"><rect id="twoPoint" x="0" y="0" width="1667" height="1197.26"/></clipPath><g clip-path="url(#_clip1)"><path d="M440.922,113.652c-217.544,55.59 -399.247,102.682 -403.692,105.161c-4.446,2.124 -10.836,0.354 -13.892,-3.541c-7.779,-9.914 -23.338,-1.77 -23.338,12.039c0,14.163 15.559,21.952 23.616,11.684c4.167,-5.311 31.673,-8.144 76.126,-8.144c84.739,0 144.751,-6.727 144.751,-15.933c0,-4.249 -29.728,-5.311 -79.182,-2.833c-43.62,2.125 -74.182,2.125 -68.069,0.354c23.338,-7.435 456.758,-116.137 463.148,-116.137c4.167,0 6.39,15.225 6.39,44.614l0,44.613l-150.03,8.852c-82.517,4.603 -153.364,10.269 -157.532,12.393c-6.112,2.833 -7.223,25.14 -6.112,109.764c1.111,98.079 0.556,105.515 -7.779,96.309c-11.669,-13.101 -188.093,-155.794 -206.43,-167.479c-8.335,-4.957 -2.501,4.603 13.891,23.724c15.281,17.703 30.84,30.804 34.452,29.034c3.889,-1.416 8.612,0.708 10.557,4.957c2.501,5.311 1.112,6.019 -3.889,2.125c-25.561,-18.413 118.912,131.716 152.252,158.272l12.225,9.914l-11.947,-13.455c-6.39,-7.081 -38.341,-40.01 -70.847,-72.586c-32.507,-32.575 -58.068,-60.901 -56.678,-62.317c2.222,-3.187 312.562,248.562 611.789,497.124c33.617,27.618 72.514,58.777 86.128,68.691l25.005,18.412l47.509,-40.01c26.117,-21.953 65.013,-54.174 86.129,-71.524c21.393,-17.35 81.127,-67.275 133.082,-110.472c51.955,-43.552 140.306,-116.846 196.428,-163.23c56.122,-46.384 140.028,-115.783 186.148,-154.023c46.399,-38.241 81.683,-66.567 78.627,-62.672c-3.056,3.895 -45.564,48.154 -94.741,98.079c-49.176,49.925 -201.151,205.719 -338.123,345.934c-136.972,140.214 -259.774,265.558 -273.11,278.305l-24.172,23.369l-85.017,-86.041c-46.676,-47.446 -93.63,-94.539 -103.909,-104.807c-10.558,-10.268 -26.95,-26.91 -36.119,-36.824c-44.175,-46.738 -349.236,-347.35 -350.625,-345.225c-0.834,1.062 53.621,57.714 120.857,126.051c262.553,265.558 379.52,383.112 419.528,421.352c33.618,31.867 33.896,33.283 14.726,49.217c-7.78,6.727 -13.059,13.809 -11.392,15.933c1.667,2.125 10.558,-3.186 20.004,-11.684l16.948,-15.58l20.838,21.953c11.391,11.685 23.06,21.599 25.838,21.599c3.056,0 -5.001,-9.914 -17.781,-21.953c-30.006,-27.972 -33.34,-20.536 45.009,-99.142c37.23,-37.532 101.687,-103.036 142.806,-145.525c41.397,-42.49 165.033,-169.249 275.055,-282.2c110.022,-112.596 223.934,-229.442 253.384,-259.893c29.173,-30.45 57.234,-55.236 62.513,-55.236c11.947,0 18.337,-19.474 10.002,-30.096c-5.001,-6.374 -11.114,-2.125 -24.45,15.579c-10.002,13.101 -64.179,61.256 -120.857,106.932l-102.798,83.208l-1.667,-105.161l-1.39,-105.161l-18.059,-3.895c-34.729,-7.436 -173.923,-16.288 -230.324,-14.517l-56.955,1.77l0,-52.757c0,-46.739 1.111,-52.404 9.724,-48.863c12.78,4.957 130.859,35.762 220.877,57.715c39.731,9.914 82.239,20.89 94.464,24.431c12.224,3.895 54.733,14.871 94.463,24.431c94.463,22.661 101.687,25.494 58.345,21.245c-119.19,-11.331 -169.478,-12.039 -162.255,-2.479c8.613,11.685 203.374,18.766 208.931,7.79c4.445,-9.206 -127.525,-44.614 -782.934,-209.614c-6.113,-1.77 -188.927,42.49 -406.47,98.08l0,0Zm392.578,1.062l0,88.873l-118.079,-3.186c-65.013,-1.417 -100.576,-1.063 -79.183,1.062l38.897,3.895l-44.453,4.603c-24.45,2.124 11.113,2.832 78.904,0.708l123.636,-3.187l1.389,339.206c0.834,186.599 1.112,340.268 0.556,342.039c-0.833,1.416 -25.005,-16.996 -53.9,-41.073c-28.894,-23.723 -84.461,-69.045 -123.913,-100.558c-39.175,-31.513 -72.793,-60.547 -74.737,-64.442c-1.945,-3.895 -3.89,-139.153 -4.446,-299.904l-0.833,-292.821l21.115,-4.958c11.669,-2.478 67.514,-16.995 123.914,-31.512c56.678,-14.872 104.743,-26.91 106.966,-27.264c2.222,-0.354 4.167,39.302 4.167,88.519l0,0Zm61.123,-75.773c13.892,3.541 65.569,16.642 115.301,29.389l90.296,23.015l0,327.875l-81.961,27.264c-45.009,15.226 -95.574,33.284 -112.522,39.657c-16.67,6.727 -37.508,14.163 -45.843,16.642l-15.281,4.603l0,-482.254l12.503,3.895c6.946,2.125 23.894,6.374 37.507,9.914l0,0Zm-393.412,368.949c-0.833,112.951 -3.334,205.365 -5.556,205.365c-2.223,-0.354 -55.011,-42.844 -117.802,-94.539l-113.911,-94.184l-1.667,-104.453l-1.389,-104.807l22.504,4.249c13.614,2.124 21.393,1.416 19.448,-2.833c-3.056,-6.019 22.227,-8.144 155.587,-12.747l44.453,-1.416l-1.667,205.365l0,0Zm65.847,-164.646c0,22.307 1.667,113.305 3.334,201.824c3.056,153.67 2.778,161.105 -7.224,161.459c-5.556,0 -19.726,4.603 -31.117,9.914l-20.838,9.206l0,-423.122l55.567,0l0.278,40.719Zm621.235,160.397l1.945,201.47l-26.95,-9.56c-14.725,-5.311 -33.895,-11.331 -42.23,-13.809l-15.281,-4.249l0,-154.732l19.17,-4.603c25.283,-6.019 63.902,-23.723 52.511,-24.077c-4.723,-0.354 -21.116,4.249 -36.119,10.268c-15.003,5.665 -29.172,10.622 -31.395,10.622c-2.222,0 -4.167,-47.8 -4.167,-106.223l0,-106.223l80.571,0l1.945,201.116Zm171.146,-189.785l40.008,3.894l1.667,48.509l1.944,48.863l-19.448,4.249c-22.504,4.957 -105.577,35.053 -150.03,54.173c-67.513,28.681 16.948,3.187 123.914,-37.532c45.287,-16.995 40.841,-21.244 44.453,41.427l3.056,50.987l-98.353,80.73c-53.899,44.614 -101.131,83.208 -105.021,85.687c-5.556,3.895 -6.946,-36.824 -6.946,-194.389l0,-198.991l62.513,4.249c34.451,2.478 80.572,6.019 102.243,8.144l0,0Zm-259.219,340.976l0,125.697l-31.951,25.848c-17.503,14.517 -71.959,59.131 -120.857,99.496c-48.899,40.719 -91.963,76.126 -95.853,78.959c-5.556,4.249 -6.946,-33.991 -6.946,-181.642c0,-217.049 -5.001,-202.532 61.679,-180.579c145.029,47.446 173.091,55.944 175.035,53.112c2.223,-2.479 -77.515,-30.805 -160.865,-57.361c-17.781,-5.665 -33.34,-11.33 -34.451,-12.747c-1.945,-2.478 194.205,-74.002 207.263,-75.772c5.279,-0.354 6.946,28.68 6.946,124.989l0,0Zm46.12,46.384c32.785,10.622 31.951,15.579 -8.612,49.217l-31.951,26.202l0,-42.136c0,-47.446 -0.556,-47.092 40.563,-33.283Zm-574.003,44.26l0,32.221l-23.616,-17.704c-33.062,-25.14 -28.895,-35.408 19.448,-45.676c2.223,-0.708 4.168,13.455 4.168,31.159Zm194.205,-473.756c-5.001,1.771 -46.12,6.02 -91.685,9.206l-83.072,6.374l91.685,-3.187c50.566,-1.77 100.576,-6.019 111.133,-9.56l19.449,-6.019l-19.449,0c-10.557,0.354 -23.338,1.416 -28.061,3.186l0,0Zm-160.865,251.041c15.836,8.144 204.207,70.107 212.82,70.107c13.614,0 -2.778,-7.435 -54.733,-25.139c-145.029,-48.509 -191.983,-61.964 -158.087,-44.968l0,0Zm133.36,120.74c-31.951,12.039 -76.404,28.327 -98.631,36.47c-21.949,8.144 -39.175,15.934 -37.785,17.35c2.222,3.187 209.208,-67.629 213.653,-72.94c6.113,-8.143 -23.615,-0.708 -77.237,19.12l0,0Zm141.695,-369.302c9.168,3.895 58.067,8.144 108.355,9.914c89.74,3.187 90.296,3.187 19.448,-2.478c-39.73,-2.833 -88.351,-7.436 -108.355,-9.915c-27.228,-3.186 -31.951,-2.478 -19.448,2.479Zm44.453,28.326l-66.68,4.249l61.679,1.416c33.896,0.709 83.906,2.479 111.133,4.249c38.064,1.771 41.675,1.417 16.115,-2.124l-33.34,-4.957l36.118,-3.541c54.178,-5.311 -36.952,-4.957 -125.025,0.708l0,0Zm-647.352,112.243c4.724,3.894 49.733,19.828 100.02,35.761c117.246,37.533 113.634,36.47 107.8,29.389c-2.779,-3.187 -47.51,-19.12 -99.465,-35.408c-124.469,-39.657 -118.357,-37.886 -108.355,-29.742l0,0Zm-186.148,-59.485c79.738,28.68 137.805,46.738 140.306,43.551c1.389,-2.124 -4.445,-5.665 -13.336,-8.144c-8.613,-2.832 -36.952,-12.038 -63.068,-21.244c-25.839,-8.852 -57.234,-18.058 -69.459,-20.183c-20.281,-3.54 -19.726,-2.832 5.557,6.02Zm1408.34,21.244c-35.285,12.393 -68.902,26.556 -75.015,31.513c-10.557,8.498 -10.557,8.498 0.278,4.957c36.118,-11.33 155.865,-55.236 157.809,-57.714c5.835,-7.436 -23.338,0 -83.072,21.244l0,0Z" style="fill-rule:nonzero;"/></g></svg>